<?xml version="1.0" encoding="UTF-8" standalone="no"?>
<svg
   xmlns:dc="http://purl.org/dc/elements/1.1/"
   xmlns:cc="http://creativecommons.org/ns#"
   xmlns:rdf="http://www.w3.org/1999/02/22-rdf-syntax-ns#"
   xmlns:svg="http://www.w3.org/2000/svg"
   xmlns="http://www.w3.org/2000/svg"
   xmlns:sodipodi="http://sodipodi.sourceforge.net/DTD/sodipodi-0.dtd"
   xmlns:inkscape="http://www.inkscape.org/namespaces/inkscape"
   id="bb554b9e-b999-4ef3-b2f2-4c0395b94ae2"
   data-name="Layer 1"
   width="926.62165"
   height="600.08495"
   viewBox="0 0 926.62165 600.08495"
   version="1.1"
   sodipodi:docname="background.svg"
   inkscape:version="1.0.1 (3bc2e813f5, 2020-09-07)">
  <metadata
     id="metadata150">
    <rdf:RDF>
      <cc:Work
         rdf:about="">
        <dc:format>image/svg+xml</dc:format>
        <dc:type
           rdf:resource="http://purl.org/dc/dcmitype/StillImage" />
        <dc:title></dc:title>
      </cc:Work>
    </rdf:RDF>
  </metadata>
  <defs
     id="defs148" />
  <sodipodi:namedview
     pagecolor="#ffffff"
     bordercolor="#666666"
     borderopacity="1"
     objecttolerance="10"
     gridtolerance="10"
     guidetolerance="10"
     inkscape:pageopacity="0"
     inkscape:pageshadow="2"
     inkscape:window-width="1920"
     inkscape:window-height="986"
     id="namedview146"
     showgrid="false"
     inkscape:zoom="1.2764859"
     inkscape:cx="463.31082"
     inkscape:cy="300.04248"
     inkscape:window-x="-11"
     inkscape:window-y="-11"
     inkscape:window-maximized="1"
     inkscape:current-layer="bb554b9e-b999-4ef3-b2f2-4c0395b94ae2" />
  <path
     d="m 125.82188,668.2408 h -258 a 1,1 0 1 1 0,-2 h 258 a 1,1 0 0 1 0,2 z"
     fill="#cccccc"
     id="path103" />
  <path
     d="m 776.94352,502.70371 h -640.8385 a 16.51868,16.51868 0 0 1 -16.5,-16.5 V 91.049904 a 12.10185,12.10185 0 0 1 12.08789,-12.08838 h 649.4535 a 12.31111,12.31111 0 0 1 12.29711,12.29736 V 486.20371 a 16.51867,16.51867 0 0 1 -16.5,16.5 z"
     fill="#f2f2f2"
     id="path105"
     style="fill:#000080" />
  <path
     d="M 756.2237,481.87139 H 158.97897 c -8.755,0 -15.87757,-6.66993 -15.87757,-14.86817 v -344.105 c 0,-6.08008 5.278,-11.02685 11.76563,-11.02685 H 760.1407 c 6.59521,0 11.96069,5.02832 11.96069,11.20849 v 343.92336 c 10e-6,8.19824 -7.12279,14.86817 -15.87769,14.86817 z"
     fill="#fff"
     id="path107"
     style="fill:#000080;opacity:0.5" />
  <path
     d="M 793.21379,93.106054 H 119.37346 v -8.40039 a 16.57376,16.57376 0 0 1 16.56,-16.5498 H 776.6537 a 16.57368,16.57368 0 0 1 16.56006,16.5498 z"
     fill="#3f3d56"
     id="path109" />
  <circle
     cx="149.46881"
     cy="80.655861"
     r="4.2834201"
     fill="#ffffff"
     id="circle111" />
  <circle
     cx="165.72763"
     cy="80.655861"
     r="4.2834201"
     fill="#ffffff"
     id="circle113" />
  <circle
     cx="181.98642"
     cy="80.655861"
     r="4.2834201"
     fill="#ffffff"
     id="circle115" />
  <path
     d="M 443.43237,187.11033 H 326.62423 a 6.56614,6.56614 0 0 1 0,-13.13228 h 116.80814 a 6.56614,6.56614 0 1 1 0,13.13228 z"
     fill="#cccccc"
     id="path117" />
  <path
     d="M 588.57857,187.11033 H 471.77044 a 6.56614,6.56614 0 0 1 0,-13.13228 h 116.80813 a 6.56614,6.56614 0 1 1 0,13.13228 z"
     fill="#cccccc"
     id="path119" />
  <path
     d="M 588.57857,211.99252 H 385.37389 a 6.566135,6.566135 0 1 1 0,-13.13227 h 203.20468 a 6.566135,6.566135 0 1 1 0,13.13227 z"
     fill="#cccccc"
     id="path121" />
  <path
     d="M 443.43237,161.88252 H 326.62423 a 6.56614,6.56614 0 0 1 0,-13.13227 h 116.80814 a 6.56614,6.56614 0 1 1 0,13.13227 z"
     fill="#cccccc"
     id="path123" />
  <path
     d="m 507.7114,162.22811 h -33.17627 a 6.56614,6.56614 0 0 1 0,-13.13228 h 33.17627 a 6.56614,6.56614 0 1 1 0,13.13228 z"
     fill="#cccccc"
     id="path125" />
  <path
     d="m 359.80051,211.99252 h -33.17628 a 6.56614,6.56614 0 0 1 0,-13.13227 h 33.17628 a 6.56614,6.56614 0 1 1 0,13.13227 z"
     fill="#cccccc"
     id="path127" />
  <path
     d="M 443.43237,420.11033 H 326.62423 a 6.56614,6.56614 0 0 1 0,-13.13228 h 116.80814 a 6.56614,6.56614 0 1 1 0,13.13228 z"
     fill="#cccccc"
     id="path129" />
  <path
     d="M 588.57857,420.11033 H 471.77044 a 6.56614,6.56614 0 0 1 0,-13.13228 h 116.80813 a 6.56614,6.56614 0 1 1 0,13.13228 z"
     fill="#cccccc"
     id="path131" />
  <path
     d="M 588.57857,444.99252 H 385.37389 a 6.566135,6.566135 0 1 1 0,-13.13227 h 203.20468 a 6.56614,6.56614 0 1 1 0,13.13227 z"
     fill="#cccccc"
     id="path133" />
  <path
     d="M 443.43237,394.88252 H 326.62423 a 6.566135,6.566135 0 0 1 0,-13.13227 h 116.80814 a 6.566135,6.566135 0 1 1 0,13.13227 z"
     fill="#cccccc"
     id="path135" />
  <path
     d="m 507.7114,395.22811 h -33.17627 a 6.56614,6.56614 0 0 1 0,-13.13228 h 33.17627 a 6.56614,6.56614 0 0 1 0,13.13228 z"
     fill="#cccccc"
     id="path137" />
  <path
     d="m 359.80051,444.99252 h -33.17628 a 6.566135,6.566135 0 0 1 0,-13.13227 h 33.17628 a 6.56614,6.56614 0 1 1 0,13.13227 z"
     fill="#cccccc"
     id="path139" />
  <path
     d="m 412.9257,349.61757 a 9.39692,9.39692 0 0 1 -6.62352,-2.7101 L 362.3935,303.54818 a 9.1516,9.1516 0 0 1 0,-13.02336 l 43.73124,-43.18435 a 9.70171,9.70171 0 0 1 13.64354,0.043 v 0 a 9.689,9.689 0 0 1 1.9e-4,13.68669 L 387.2724,293.5668 a 5.41338,5.41338 0 0 0 0,7.64652 l 32.31978,32.32016 a 9.418,9.418 0 0 1 -6.66648,16.08412 z"
     fill="#6c63ff"
     id="path141" />
  <path
     d="m 482.89129,349.61757 a 9.418,9.418 0 0 1 -6.66648,-16.08412 l 32.31978,-32.32012 a 5.41338,5.41338 0 0 0 0,-7.64652 l -32.49607,-32.49668 a 9.67776,9.67776 0 0 1 1.9e-4,-13.68669 v 0 a 9.70169,9.70169 0 0 1 13.64353,-0.043 l 43.73124,43.18435 a 9.15157,9.15157 0 0 1 0,13.02336 l -43.90867,43.35929 a 9.39891,9.39891 0 0 1 -6.62352,2.71013 z"
     fill="#6c63ff"
     id="path143" />
</svg>
